<svg width="20" height="20" viewBox="0 0 20 20" fill="none" xmlns="http://www.w3.org/2000/svg">
<path d="M6.49999 1.66663H13.5C16.1667 1.66663 18.3333 3.83329 18.3333 6.49996V13.5C18.3333 14.7818 17.8241 16.0112 16.9177 16.9176C16.0112 17.8241 14.7819 18.3333 13.5 18.3333H6.49999C3.83332 18.3333 1.66666 16.1666 1.66666 13.5V6.49996C1.66666 5.21808 2.17588 3.9887 3.08231 3.08228C3.98873 2.17585 5.21811 1.66663 6.49999 1.66663ZM6.33332 3.33329C5.53767 3.33329 4.77461 3.64936 4.212 4.21197C3.64939 4.77458 3.33332 5.53764 3.33332 6.33329V13.6666C3.33332 15.325 4.67499 16.6666 6.33332 16.6666H13.6667C14.4623 16.6666 15.2254 16.3506 15.788 15.7879C16.3506 15.2253 16.6667 14.4623 16.6667 13.6666V6.33329C16.6667 4.67496 15.325 3.33329 13.6667 3.33329H6.33332ZM14.375 4.58329C14.6513 4.58329 14.9162 4.69304 15.1116 4.88839C15.3069 5.08374 15.4167 5.34869 15.4167 5.62496C15.4167 5.90123 15.3069 6.16618 15.1116 6.36153C14.9162 6.55688 14.6513 6.66663 14.375 6.66663C14.0987 6.66663 13.8338 6.55688 13.6384 6.36153C13.4431 6.16618 13.3333 5.90123 13.3333 5.62496C13.3333 5.34869 13.4431 5.08374 13.6384 4.88839C13.8338 4.69304 14.0987 4.58329 14.375 4.58329ZM9.99999 5.83329C11.1051 5.83329 12.1649 6.27228 12.9463 7.05368C13.7277 7.83508 14.1667 8.89489 14.1667 9.99996C14.1667 11.105 13.7277 12.1648 12.9463 12.9462C12.1649 13.7276 11.1051 14.1666 9.99999 14.1666C8.89492 14.1666 7.83511 13.7276 7.05371 12.9462C6.27231 12.1648 5.83332 11.105 5.83332 9.99996C5.83332 8.89489 6.27231 7.83508 7.05371 7.05368C7.83511 6.27228 8.89492 5.83329 9.99999 5.83329ZM9.99999 7.49996C9.33695 7.49996 8.70106 7.76335 8.23222 8.23219C7.76338 8.70103 7.49999 9.33692 7.49999 9.99996C7.49999 10.663 7.76338 11.2989 8.23222 11.7677C8.70106 12.2366 9.33695 12.5 9.99999 12.5C10.663 12.5 11.2989 12.2366 11.7678 11.7677C12.2366 11.2989 12.5 10.663 12.5 9.99996C12.5 9.33692 12.2366 8.70103 11.7678 8.23219C11.2989 7.76335 10.663 7.49996 9.99999 7.49996Z" fill="white"/>
</svg>
