<svg width="109" height="70" viewBox="0 0 109 70" fill="none" xmlns="http://www.w3.org/2000/svg">
<path d="M8.66992 47.6484H11.9492V58.8789C11.9492 60.1367 11.7171 61.1624 11.2529 61.9561C10.7962 62.7422 10.1636 63.3187 9.35498 63.6855C8.54639 64.0449 7.62174 64.2246 6.58105 64.2246C5.53288 64.2246 4.60075 64.0449 3.78467 63.6855C2.96859 63.3187 2.33219 62.7422 1.87549 61.9561C1.42627 61.1624 1.20166 60.1367 1.20166 58.8789V47.6484H4.48096V58.8789C4.48096 59.5902 4.55957 60.1367 4.7168 60.5186C4.88151 60.9004 5.11735 61.1624 5.42432 61.3047C5.73877 61.4395 6.12435 61.5068 6.58105 61.5068C7.04525 61.5068 7.42708 61.4395 7.72656 61.3047C8.03353 61.1624 8.26562 60.9004 8.42285 60.5186C8.58757 60.1367 8.66992 59.5902 8.66992 58.8789V47.6484ZM17.396 54.4429V64H14.2402V51.8486H17.1938L17.396 54.4429ZM16.9243 57.5088L16.082 57.5312C16.0671 56.6178 16.1532 55.798 16.3403 55.0718C16.535 54.3455 16.8083 53.7279 17.1602 53.2188C17.5195 52.7021 17.9463 52.3091 18.4404 52.0396C18.9421 51.7625 19.4998 51.624 20.1138 51.624C20.5854 51.624 21.016 51.7064 21.4053 51.8711C21.8021 52.0358 22.1427 52.2979 22.4272 52.6572C22.7118 53.0166 22.9326 53.4958 23.0898 54.0947C23.2471 54.6862 23.3257 55.4124 23.3257 56.2734V64H20.1699V56.251C20.1699 55.7269 20.1175 55.3226 20.0127 55.0381C19.9079 54.7461 19.7507 54.5439 19.541 54.4316C19.3314 54.3118 19.0693 54.252 18.7549 54.252C18.4554 54.252 18.1896 54.3381 17.9575 54.5103C17.7254 54.675 17.5308 54.9033 17.3735 55.1953C17.2238 55.4873 17.1077 55.8317 17.0254 56.2285C16.9505 56.6253 16.9168 57.0521 16.9243 57.5088ZM28.9297 51.8486V64H25.7739V51.8486H28.9297ZM25.6279 48.7041C25.6279 48.2174 25.7814 47.8169 26.0884 47.5024C26.4028 47.1805 26.8221 47.0195 27.3462 47.0195C27.8778 47.0195 28.297 47.1805 28.604 47.5024C28.911 47.8169 29.0645 48.2174 29.0645 48.7041C29.0645 49.1833 28.9072 49.5838 28.5928 49.9058C28.2858 50.2202 27.874 50.3774 27.3574 50.3774C26.8258 50.3774 26.4028 50.2202 26.0884 49.9058C25.7814 49.5838 25.6279 49.1833 25.6279 48.7041ZM35.0054 61.5742L36.9595 51.8486H40.2388L36.9033 64H34.938L35.0054 61.5742ZM33.8486 51.8486L35.8364 61.5854L35.8701 64H33.8936L30.5581 51.8486H33.8486ZM46.4941 64.2246C45.6631 64.2246 44.9256 64.0973 44.2817 63.8428C43.6453 63.5882 43.1063 63.2214 42.6646 62.7422C42.2228 62.2555 41.8859 61.6678 41.6538 60.979C41.4217 60.2902 41.3057 59.5041 41.3057 58.6206V57.6211C41.3057 56.6328 41.418 55.7681 41.6426 55.0269C41.8672 54.2782 42.1854 53.6493 42.5972 53.1401C43.009 52.631 43.5143 52.2529 44.1133 52.0059C44.7197 51.7513 45.4048 51.624 46.1685 51.624C46.9321 51.624 47.6022 51.7513 48.1787 52.0059C48.7627 52.2529 49.2456 52.6273 49.6274 53.1289C50.0093 53.623 50.2975 54.237 50.4922 54.9707C50.6868 55.7044 50.7842 56.5579 50.7842 57.5312V58.9688H42.6421V56.7563H47.6958V56.4756C47.6958 55.9814 47.6434 55.5697 47.5386 55.2402C47.4338 54.9033 47.269 54.6525 47.0444 54.4878C46.8198 54.3231 46.5203 54.2407 46.146 54.2407C45.8315 54.2407 45.5658 54.3044 45.3486 54.4316C45.1315 54.5589 44.9593 54.7573 44.832 55.0269C44.7048 55.2964 44.6112 55.6483 44.5513 56.0825C44.4914 56.5093 44.4614 57.0221 44.4614 57.6211V58.6206C44.4614 59.1821 44.5101 59.6538 44.6074 60.0356C44.7048 60.41 44.847 60.717 45.0342 60.9565C45.2288 61.1886 45.4647 61.3571 45.7417 61.4619C46.0187 61.5592 46.3407 61.6079 46.7075 61.6079C47.2616 61.6079 47.7594 61.5106 48.2012 61.3159C48.6504 61.1138 49.0322 60.8405 49.3467 60.4961L50.6045 62.4053C50.3874 62.6898 50.0879 62.9743 49.7061 63.2588C49.3242 63.5433 48.8675 63.7754 48.3359 63.9551C47.8044 64.1348 47.1904 64.2246 46.4941 64.2246ZM55.748 54.5552V64H52.6035V51.8486H55.5684L55.748 54.5552ZM58.6118 51.7588L58.5669 54.8921C58.4246 54.8621 58.2524 54.8397 58.0503 54.8247C57.8556 54.8097 57.6834 54.8022 57.5337 54.8022C57.1818 54.8022 56.8823 54.8584 56.6353 54.9707C56.3882 55.0755 56.1823 55.2365 56.0176 55.4536C55.8604 55.6632 55.7406 55.9253 55.6582 56.2397C55.5758 56.5542 55.5272 56.9098 55.5122 57.3066L54.917 57.082C54.917 56.2884 54.9769 55.5622 55.0967 54.9033C55.224 54.237 55.4111 53.6605 55.6582 53.1738C55.9053 52.6797 56.201 52.2979 56.5454 52.0283C56.8973 51.7588 57.2941 51.624 57.7358 51.624C57.8856 51.624 58.0428 51.639 58.2075 51.6689C58.3797 51.6914 58.5145 51.7214 58.6118 51.7588ZM65.6084 60.7207C65.6084 60.5111 65.5373 60.3239 65.395 60.1592C65.2528 59.9945 65.0282 59.826 64.7212 59.6538C64.4142 59.4741 64.0062 59.2757 63.4971 59.0586C62.943 58.834 62.4526 58.6019 62.0259 58.3623C61.5991 58.1227 61.236 57.8569 60.9365 57.5649C60.6445 57.2729 60.4237 56.9398 60.2739 56.5654C60.1242 56.1911 60.0493 55.7643 60.0493 55.2852C60.0493 54.7686 60.1429 54.2931 60.3301 53.8589C60.5247 53.4172 60.8018 53.0316 61.1611 52.7021C61.5205 52.3652 61.9585 52.1032 62.4751 51.916C62.9992 51.7214 63.5869 51.624 64.2383 51.624C65.1517 51.624 65.9341 51.785 66.5854 52.1069C67.2443 52.4214 67.7497 52.8631 68.1016 53.4321C68.4535 54.0011 68.6294 54.6637 68.6294 55.4199H65.4849C65.4849 55.1504 65.4437 54.9108 65.3613 54.7012C65.279 54.484 65.1442 54.3156 64.957 54.1958C64.7773 54.076 64.534 54.0161 64.2271 54.0161C64.0024 54.0161 63.8003 54.0648 63.6206 54.1621C63.4484 54.2594 63.3099 54.3905 63.2051 54.5552C63.1077 54.7124 63.0591 54.8996 63.0591 55.1167C63.0591 55.2814 63.0928 55.4274 63.1602 55.5547C63.235 55.682 63.3511 55.8055 63.5083 55.9253C63.6655 56.0451 63.8752 56.1724 64.1372 56.3071C64.4067 56.4344 64.7362 56.5767 65.1255 56.7339C65.9341 57.0334 66.5967 57.3553 67.1133 57.6997C67.6374 58.0441 68.0267 58.4484 68.2812 58.9126C68.5358 59.3693 68.6631 59.9346 68.6631 60.6084C68.6631 61.1475 68.5583 61.6379 68.3486 62.0796C68.1465 62.5213 67.8507 62.9032 67.4614 63.2251C67.0721 63.547 66.6042 63.7941 66.0576 63.9663C65.5186 64.1385 64.9159 64.2246 64.2495 64.2246C63.2687 64.2246 62.4414 64.0299 61.7676 63.6406C61.0938 63.2513 60.5846 62.7534 60.2402 62.147C59.8958 61.533 59.7236 60.8966 59.7236 60.2378H62.7109C62.7259 60.6421 62.8008 60.9603 62.9355 61.1924C63.0778 61.417 63.2687 61.5742 63.5083 61.6641C63.7479 61.7539 64.0137 61.7988 64.3057 61.7988C64.5977 61.7988 64.8372 61.7614 65.0244 61.6865C65.2191 61.6042 65.3651 61.4806 65.4624 61.3159C65.5597 61.1437 65.6084 60.9453 65.6084 60.7207ZM73.9639 51.8486V64H70.8081V51.8486H73.9639ZM70.6621 48.7041C70.6621 48.2174 70.8156 47.8169 71.1226 47.5024C71.437 47.1805 71.8563 47.0195 72.3804 47.0195C72.9119 47.0195 73.3312 47.1805 73.6382 47.5024C73.9451 47.8169 74.0986 48.2174 74.0986 48.7041C74.0986 49.1833 73.9414 49.5838 73.627 49.9058C73.32 50.2202 72.9082 50.3774 72.3916 50.3774C71.86 50.3774 71.437 50.2202 71.1226 49.9058C70.8156 49.5838 70.6621 49.1833 70.6621 48.7041ZM82.3418 61.3159V46.75H85.4976V64L82.645 64.0112L82.3418 61.3159ZM76.0415 58.3511V57.5425C76.0415 56.5542 76.1239 55.6895 76.2886 54.9482C76.4608 54.207 76.7153 53.5894 77.0522 53.0952C77.3892 52.6011 77.8009 52.2342 78.2876 51.9946C78.7817 51.7476 79.347 51.624 79.9834 51.624C80.5599 51.624 81.0653 51.77 81.4995 52.062C81.9412 52.3465 82.3156 52.7471 82.6226 53.2637C82.9295 53.7803 83.1766 54.3905 83.3638 55.0942C83.5509 55.798 83.682 56.5692 83.7568 57.4077V58.5757C83.667 59.3693 83.5285 60.1105 83.3413 60.7993C83.1616 61.4881 82.9146 62.0871 82.6001 62.5962C82.2931 63.1053 81.9225 63.5059 81.4883 63.7979C81.054 64.0824 80.5487 64.2246 79.9722 64.2246C79.3358 64.2246 78.7705 64.0973 78.2764 63.8428C77.7897 63.5882 77.3779 63.2139 77.041 62.7197C76.7116 62.2181 76.4608 61.6042 76.2886 60.8779C76.1239 60.1442 76.0415 59.3019 76.0415 58.3511ZM79.186 57.5425V58.3511C79.186 58.9201 79.2122 59.4105 79.2646 59.8223C79.3245 60.2266 79.4181 60.5597 79.5454 60.8218C79.6802 61.0763 79.8561 61.2673 80.0732 61.3945C80.2904 61.5143 80.5599 61.5742 80.8818 61.5742C81.3011 61.5742 81.6418 61.4694 81.9038 61.2598C82.1659 61.0426 82.3605 60.7469 82.4878 60.3726C82.6226 59.9907 82.6974 59.5527 82.7124 59.0586V56.936C82.6974 56.5243 82.6488 56.1536 82.5664 55.8242C82.484 55.4948 82.368 55.214 82.2183 54.9819C82.0685 54.7498 81.8813 54.5701 81.6567 54.4429C81.4396 54.3156 81.1851 54.252 80.8931 54.252C80.5786 54.252 80.3091 54.3156 80.0845 54.4429C79.8674 54.5701 79.6951 54.7686 79.5679 55.0381C79.4406 55.3001 79.3433 55.6408 79.2759 56.0601C79.216 56.4718 79.186 56.966 79.186 57.5425ZM93.2241 61.2036V55.5884C93.2241 55.2215 93.1792 54.9295 93.0894 54.7124C93.007 54.4953 92.8797 54.3381 92.7075 54.2407C92.5428 54.1359 92.3407 54.0835 92.1011 54.0835C91.8315 54.0835 91.6069 54.1396 91.4272 54.252C91.2476 54.3643 91.1128 54.5252 91.0229 54.7349C90.9406 54.9445 90.8994 55.1953 90.8994 55.4873H87.7437C87.7437 54.9632 87.8447 54.4691 88.0469 54.0049C88.249 53.5332 88.5448 53.1214 88.9341 52.7695C89.3309 52.4102 89.8026 52.1294 90.3491 51.9272C90.8957 51.7251 91.5096 51.624 92.1909 51.624C92.9995 51.624 93.7183 51.7625 94.3472 52.0396C94.9761 52.3091 95.474 52.7396 95.8408 53.3311C96.2077 53.9225 96.3911 54.6899 96.3911 55.6333V61.0464C96.3911 61.7277 96.4248 62.2817 96.4922 62.7085C96.5671 63.1353 96.6756 63.5021 96.8179 63.8091V64H93.6509C93.5086 63.6631 93.4001 63.2438 93.3252 62.7422C93.2578 62.2331 93.2241 61.7202 93.2241 61.2036ZM93.606 56.5767L93.6172 58.4634H92.4604C92.161 58.4634 91.8989 58.512 91.6743 58.6094C91.4572 58.7067 91.2738 58.8452 91.124 59.0249C90.9743 59.1971 90.862 59.3993 90.7871 59.6313C90.7197 59.8634 90.686 60.1105 90.686 60.3726C90.686 60.6646 90.7272 60.9116 90.8096 61.1138C90.8919 61.3159 91.0155 61.4694 91.1802 61.5742C91.3449 61.679 91.5396 61.7314 91.7642 61.7314C92.1086 61.7314 92.408 61.6603 92.6626 61.5181C92.9172 61.3758 93.1043 61.2036 93.2241 61.0015C93.3514 60.7993 93.3926 60.6121 93.3477 60.4399L94.0664 61.6641C93.9766 61.9411 93.853 62.2293 93.6958 62.5288C93.5461 62.8283 93.3551 63.1053 93.123 63.3599C92.891 63.6144 92.6027 63.8241 92.2583 63.9888C91.9214 64.146 91.5208 64.2246 91.0566 64.2246C90.4053 64.2246 89.8101 64.0749 89.271 63.7754C88.7319 63.4759 88.3052 63.0566 87.9907 62.5176C87.6838 61.9785 87.5303 61.3384 87.5303 60.5972C87.5303 59.9832 87.6276 59.4292 87.8223 58.9351C88.0244 58.4334 88.3239 58.0104 88.7207 57.666C89.1175 57.3141 89.6191 57.0446 90.2256 56.8574C90.832 56.6702 91.5433 56.5767 92.3594 56.5767H93.606ZM104.601 61.3159V46.75H107.756V64L104.904 64.0112L104.601 61.3159ZM98.3003 58.3511V57.5425C98.3003 56.5542 98.3826 55.6895 98.5474 54.9482C98.7196 54.207 98.9741 53.5894 99.311 53.0952C99.6479 52.6011 100.06 52.2342 100.546 51.9946C101.041 51.7476 101.606 51.624 102.242 51.624C102.819 51.624 103.324 51.77 103.758 52.062C104.2 52.3465 104.574 52.7471 104.881 53.2637C105.188 53.7803 105.435 54.3905 105.623 55.0942C105.81 55.798 105.941 56.5692 106.016 57.4077V58.5757C105.926 59.3693 105.787 60.1105 105.6 60.7993C105.42 61.4881 105.173 62.0871 104.859 62.5962C104.552 63.1053 104.181 63.5059 103.747 63.7979C103.313 64.0824 102.807 64.2246 102.231 64.2246C101.595 64.2246 101.029 64.0973 100.535 63.8428C100.049 63.5882 99.6367 63.2139 99.2998 62.7197C98.9704 62.2181 98.7196 61.6042 98.5474 60.8779C98.3826 60.1442 98.3003 59.3019 98.3003 58.3511ZM101.445 57.5425V58.3511C101.445 58.9201 101.471 59.4105 101.523 59.8223C101.583 60.2266 101.677 60.5597 101.804 60.8218C101.939 61.0763 102.115 61.2673 102.332 61.3945C102.549 61.5143 102.819 61.5742 103.141 61.5742C103.56 61.5742 103.901 61.4694 104.163 61.2598C104.425 61.0426 104.619 60.7469 104.747 60.3726C104.881 59.9907 104.956 59.5527 104.971 59.0586V56.936C104.956 56.5243 104.908 56.1536 104.825 55.8242C104.743 55.4948 104.627 55.214 104.477 54.9819C104.327 54.7498 104.14 54.5701 103.916 54.4429C103.698 54.3156 103.444 54.252 103.152 54.252C102.837 54.252 102.568 54.3156 102.343 54.4429C102.126 54.5701 101.954 54.7686 101.827 55.0381C101.699 55.3001 101.602 55.6408 101.535 56.0601C101.475 56.4718 101.445 56.966 101.445 57.5425Z" fill="white"/>
<path d="M47.5 21.3214L54.5 15.3215L61.8823 20.9131L54.5 26.8215L47.5 21.3214Z" fill="white"/>
<path d="M54.9428 36.7066L36.1585 21.565L54.9977 5.923L72.9265 20.8637L54.9428 36.7066Z" stroke="white" stroke-width="4"/>
</svg>
