<svg width="25" height="25" viewBox="0 0 25 25" fill="none" xmlns="http://www.w3.org/2000/svg">
<path d="M10.0833 15.2084L15.2733 12.2084L10.0833 9.20837V15.2084ZM21.6433 7.37837C21.7733 7.84837 21.8633 8.47837 21.9233 9.27837C21.9933 10.0784 22.0233 10.7684 22.0233 11.3684L22.0833 12.2084C22.0833 14.3984 21.9233 16.0084 21.6433 17.0384C21.3933 17.9384 20.8133 18.5184 19.9133 18.7684C19.4433 18.8984 18.5833 18.9884 17.2633 19.0484C15.9633 19.1184 14.7733 19.1484 13.6733 19.1484L12.0833 19.2084C7.89334 19.2084 5.28334 19.0484 4.25334 18.7684C3.35334 18.5184 2.77334 17.9384 2.52334 17.0384C2.39334 16.5684 2.30334 15.9384 2.24334 15.1384C2.17334 14.3384 2.14334 13.6484 2.14334 13.0484L2.08334 12.2084C2.08334 10.0184 2.24334 8.40837 2.52334 7.37837C2.77334 6.47837 3.35334 5.89837 4.25334 5.64837C4.72334 5.51837 5.58334 5.42837 6.90334 5.36837C8.20334 5.29837 9.39334 5.26837 10.4933 5.26837L12.0833 5.20837C16.2733 5.20837 18.8833 5.36837 19.9133 5.64837C20.8133 5.89837 21.3933 6.47837 21.6433 7.37837Z" fill="white"/>
</svg>
